<?xml version="1.0" encoding="UTF-8"?>
<svg id="Layer_2" data-name="Layer 2" xmlns="http://www.w3.org/2000/svg" xmlns:xlink="http://www.w3.org/1999/xlink" viewBox="0 0 457.15 159.91">
  <defs>
    <style>
      .cls-1 {
        fill: #535e38;
      }

      .cls-1, .cls-2, .cls-3 {
        stroke-width: 0px;
      }

      .cls-4 {
        font-family: MyriadPro-Regular, 'Myriad Pro';
        font-size: 14px;
      }

      .cls-4, .cls-3 {
        fill: #a5543e;
      }

      .cls-2 {
        fill: none;
      }

      .cls-5 {
        clip-path: url(#clippath-1);
      }
4F5935
      .cls-6 {
        clip-path: url(#clippath);
      }
    </style>
    <clipPath id="clippath">
      <rect class="cls-2" width="457.15" height="159.91"/>
    </clipPath>
    <clipPath id="clippath-1">
      <rect class="cls-2" width="457.15" height="159.91"/>
    </clipPath>
  </defs>
  <g id="Layer_1-2" data-name="Layer 1">
    <g class="cls-6">
      <path class="cls-3" d="M434.21,150.74h6.17v-1.55h-4.37v-2.68h3.35v-1.55h-3.35v-2.61h4.14v-1.55h-5.95v9.94ZM428.48,150.74h1.8v-9.94h-1.8v9.94ZM420.7,150.74h1.8v-8.39h3.26v-1.55h-8.33v1.55h3.26v8.39ZM406.53,145.73c0,2.93,2.1,5.18,5.14,5.18,2.53,0,3.91-1.61,3.91-1.61l-.95-1.3s-1.16,1.26-2.88,1.26c-2.07,0-3.35-1.67-3.35-3.56s1.23-3.42,3.33-3.42c1.58,0,2.72,1.05,2.72,1.05l.87-1.34s-1.25-1.36-3.67-1.36c-2.93,0-5.11,2.21-5.11,5.1M397.82,150.74h6.17v-1.55h-4.37v-2.68h3.35v-1.55h-3.35v-2.61h4.14v-1.55h-5.95v9.94ZM390.04,150.74h1.8v-8.39h3.26v-1.55h-8.33v1.55h3.26v8.39ZM378.53,150.74h6.17v-1.55h-4.37v-2.68h3.35v-1.55h-3.35v-2.61h4.14v-1.55h-5.95v9.94ZM368.59,149.19v-6.83h1.48c1.99,0,3.31,1.19,3.31,3.4s-1.29,3.43-3.31,3.43h-1.48ZM366.79,150.74h3.39c3.07,0,5.07-1.85,5.07-4.98s-2-4.95-5.07-4.95h-3.39v9.94ZM357.84,150.74h6.1v-1.55h-4.3v-8.39h-1.8v9.94ZM350.74,142.52s.21.98.39,1.54l.88,2.66h-2.6l.88-2.66c.2-.56.42-1.54.42-1.54h.03ZM353.3,150.74h1.86l-3.5-9.94h-1.89l-3.5,9.94h1.86l.84-2.55h3.48l.84,2.55ZM340.42,142.52s.21.98.39,1.54l.88,2.66h-2.6l.88-2.66c.2-.56.42-1.54.42-1.54h.03ZM342.99,150.74h1.86l-3.5-9.94h-1.89l-3.5,9.94h1.86l.84-2.55h3.49l.84,2.55ZM330,150.74h1.8v-8.39h3.26v-1.55h-8.33v1.55h3.26v8.39ZM318.49,150.74h6.17v-1.55h-4.37v-2.68h3.35v-1.55h-3.35v-2.61h4.14v-1.55h-5.95v9.94ZM304.49,150.74h1.8l.42-5.56c.04-.66.01-1.55.01-1.55h.03s.31.98.55,1.55l1.6,3.85h1.58l1.61-3.85c.24-.57.53-1.54.53-1.54h.03s-.03.88.01,1.54l.42,5.56h1.79l-.8-9.94h-1.93l-1.95,4.91c-.22.59-.49,1.46-.49,1.46h-.03s-.28-.87-.5-1.46l-1.95-4.91h-1.93l-.81,9.94ZM287.95,150.74h1.8v-5.72c0-.59-.1-1.54-.1-1.54h.03s.45.97.83,1.54l3.77,5.72h1.79v-9.94h-1.79v5.74c0,.59.1,1.54.1,1.54h-.03s-.45-.97-.83-1.54l-3.77-5.74h-1.8v9.94ZM278.5,150.74h6.17v-1.55h-4.37v-2.68h3.35v-1.55h-3.35v-2.61h4.14v-1.55h-5.95v9.94ZM263.24,150.74h1.8v-4.34h1.29l2.44,4.34h2.03l-2.98-5.18v-.03l2.81-4.73h-1.96l-2.34,4.05h-1.29v-4.05h-1.8v9.94ZM254.44,145.46v-3.11h1.37c1.41,0,1.82.59,1.82,1.54s-.6,1.57-1.57,1.57h-1.62ZM252.63,150.74h1.81v-3.71h1.74l1.97,3.71h2.01l-2.04-3.71c-.2-.35-.34-.49-.34-.49v-.03c1.05-.42,1.68-1.53,1.68-2.72,0-1.32-.63-2.27-1.62-2.72-.43-.19-.92-.28-2-.28h-3.21v9.94ZM243.18,150.74h6.17v-1.55h-4.37v-2.68h3.35v-1.55h-3.35v-2.61h4.14v-1.55h-5.95v9.94ZM234.53,140.8h-1.57l-1.79,6.87c-.15.57-.17,1.05-.18,1.05h-.03s-.04-.49-.17-1.05l-1.57-6.87h-1.86l2.49,9.94h2.09l1.53-5.88c.17-.64.25-1.3.25-1.3h.03s.08.66.25,1.3l1.53,5.88h2.09l2.56-9.94h-1.86l-1.64,6.87c-.13.56-.17,1.05-.17,1.05h-.03s-.03-.48-.18-1.05l-1.76-6.87ZM219.45,150.74h1.8v-4.02h3.29v-1.55h-3.29v-2.82h3.91v-1.55h-5.71v9.94ZM210,150.74h6.17v-1.55h-4.37v-2.68h3.35v-1.55h-3.35v-2.61h4.14v-1.55h-5.95v9.94ZM204.28,150.74h1.8v-9.94h-1.8v9.94ZM192.19,150.74h1.8v-4.17h4.55v4.17h1.8v-9.94h-1.8v4.21h-4.55v-4.21h-1.8v9.94ZM180.08,145.73c0,2.93,2.1,5.18,5.14,5.18,2.53,0,3.91-1.61,3.91-1.61l-.95-1.3s-1.16,1.26-2.88,1.26c-2.07,0-3.35-1.67-3.35-3.56s1.23-3.42,3.33-3.42c1.58,0,2.72,1.05,2.72,1.05l.87-1.34s-1.25-1.36-3.67-1.36c-2.93,0-5.11,2.21-5.11,5.1M172.02,145.46v-3.11h1.37c1.42,0,1.82.59,1.82,1.54s-.6,1.57-1.57,1.57h-1.62ZM170.21,150.74h1.81v-3.71h1.74l1.98,3.71h2.01l-2.04-3.71c-.2-.35-.34-.49-.34-.49v-.03c1.05-.42,1.68-1.53,1.68-2.72,0-1.32-.63-2.27-1.62-2.72-.43-.19-.92-.28-2-.28h-3.21v9.94ZM163.12,142.52s.21.98.39,1.54l.88,2.66h-2.6l.88-2.66c.2-.56.42-1.54.42-1.54h.03ZM165.68,150.74h1.86l-3.5-9.94h-1.89l-3.5,9.94h1.86l.84-2.55h3.49l.84,2.55Z"/>
      <path class="cls-3" d="M435.5,70.6c-1.04,0-2.3-1.19-2.3-2.96,0-.69.71-.9,1.55-.9,1.61,0,2.26,1.13,2.26,2.19,0,.88-.59,1.67-1.5,1.67M435.5,73.94c3.24,0,5.09-2.51,5.09-5.03s-1.77-5.11-4.89-5.11c-.71,0-1.69.27-2.05.52h-.04c.46-1.38,1.46-2.46,3.21-2.46,1.07,0,2.05.44,2.05.44l.98-3.13s-1.21-.65-3.3-.65c-4.64,0-7.12,4.24-7.12,8.29,0,4.87,3.05,7.14,6.05,7.14M417.21,67.05v-.04l2.26-3.42c.42-.63.73-1.54.73-1.54h.04s-.13.86-.13,1.67v3.34h-2.9ZM413.49,70.08h6.62v3.61h3.61v-3.61h1.77v-3.03h-1.77v-8.29h-4.47l-5.76,9.1v2.21ZM404.6,65.71c-1.61,0-2.26-1.13-2.26-2.19,0-.88.58-1.67,1.5-1.67,1.04,0,2.3,1.19,2.3,2.97,0,.69-.71.9-1.54.9M402.78,73.94c4.64,0,7.12-4.24,7.12-8.29,0-4.87-3.05-7.14-6.05-7.14-3.24,0-5.1,2.51-5.1,5.03s1.77,5.12,4.89,5.12c.71,0,1.71-.25,2.05-.52h.04c-.46,1.38-1.46,2.46-3.21,2.46-1.07,0-2.05-.44-2.05-.44l-.98,3.13s1.21.65,3.3.65M385.43,73.69h9.94v-3.13h-3.2v-11.8h-3.15l-4.03,3.78,2.11,2.25.9-.81c.4-.38.58-.79.58-.79h.04s-.02.58-.02,1.15v6.22h-3.17v3.13Z"/>
    </g>
    <rect class="cls-3" x="409.56" y="50.38" width="6.56" height="3.13"/>
    <g class="cls-5">
      <path class="cls-3" d="M434.55,36.71c-1.61,0-2.26-1.13-2.26-2.19,0-.88.58-1.67,1.5-1.67,1.04,0,2.3,1.19,2.3,2.97,0,.69-.71.9-1.54.9M432.73,44.94c4.64,0,7.12-4.24,7.12-8.29,0-4.87-3.05-7.14-6.05-7.14-3.24,0-5.1,2.51-5.1,5.03s1.77,5.12,4.89,5.12c.71,0,1.71-.25,2.05-.52h.04c-.46,1.38-1.46,2.46-3.22,2.46-1.06,0-2.05-.44-2.05-.44l-.98,3.13s1.21.65,3.3.65M414.17,42.98s1.75,1.96,5.1,1.96c3.74,0,5.53-2.55,5.53-5.1,0-2.09-1.4-3.84-3.61-4.32l3.03-3.49v-2.28h-9.42v3.13h3.57c.94,0,1.42-.11,1.42-.11v.04s-.59.54-1.3,1.4l-1.96,2.36.77,1.77h1.04c1.61,0,2.78.48,2.78,1.65,0,.81-.77,1.48-2.13,1.48-1.73,0-3.07-1.34-3.07-1.34l-1.75,2.82ZM405.19,36.71c-1.61,0-2.26-1.13-2.26-2.19,0-.88.58-1.67,1.5-1.67,1.04,0,2.3,1.19,2.3,2.97,0,.69-.71.9-1.54.9M403.38,44.94c4.64,0,7.12-4.24,7.12-8.29,0-4.87-3.05-7.14-6.05-7.14-3.24,0-5.1,2.51-5.1,5.03s1.77,5.12,4.89,5.12c.71,0,1.71-.25,2.05-.52h.04c-.46,1.38-1.46,2.46-3.21,2.46-1.07,0-2.05-.44-2.05-.44l-.98,3.13s1.21.65,3.3.65M386.03,44.69h9.94v-3.13h-3.2v-11.8h-3.15l-4.03,3.78,2.11,2.25.9-.81c.4-.38.58-.79.58-.79h.04s-.02.58-.02,1.15v6.22h-3.17v3.13Z"/>
      <path class="cls-1" d="M404.17,129.03h10.5v-19.98c0-2.7-.48-7.32-.48-7.32h.12s1.92,4.5,3.6,7.32l11.94,19.98h10.56v-42.9h-10.5v20.04c0,2.7.48,7.32.48,7.32h-.12s-1.92-4.5-3.6-7.32l-11.88-20.04h-10.62v42.9ZM365.17,129.03h27.72v-9h-17.22v-8.1h13.08v-9h-13.08v-7.8h16.38v-9h-26.88v42.9ZM312,107.49c0,14.04,10.08,22.26,21.06,22.26,7.14,0,11.28-3.72,11.28-3.72h.12s-.06.9-.06,1.8v1.2h8.76v-24.24h-15.36v8.94h6.06v3.3s-3.66,3.12-8.7,3.12c-6.66,0-12.3-4.86-12.3-13.02,0-6.36,3.66-12.12,12.66-12.12,6.06,0,10.44,3.96,10.44,3.96l5.04-7.86s-5.52-5.7-16.5-5.7c-13.08,0-22.5,9.6-22.5,22.08M281.94,105.57v-10.44h3.54c5.28,0,6.48,1.92,6.48,5.16,0,3.42-2.1,5.28-5.46,5.28h-4.56ZM271.44,129.03h10.5v-14.46h4.92l7.62,14.46h11.7l-8.34-15c-1.02-1.8-1.62-2.58-1.62-2.58v-.12c4.26-2.16,6.42-7.14,6.42-11.7,0-6.24-3.06-10.62-7.92-12.48-1.86-.72-3.96-1.02-8.34-1.02h-14.94v42.9ZM232.45,129.03h27.72v-9h-17.22v-8.1h13.08v-9h-13.08v-7.8h16.38v-9h-26.88v42.9ZM199.82,120.03v-8.88h6.36c3.06,0,4.5,1.98,4.5,4.38s-1.5,4.5-4.56,4.5h-6.3ZM199.82,102.75v-7.62h5.22c2.82,0,3.96,1.68,3.96,3.66s-1.14,3.96-3.78,3.96h-5.4ZM189.32,129.03h15.78c8.52,0,16.32-3.42,16.32-12.78,0-3.78-1.8-8.16-6.72-9.66v-.12c3.24-1.86,4.98-5.52,4.98-9.12,0-7.38-6-11.22-14.58-11.22h-15.78v42.9ZM130.59,129.03h10.56l1.32-19.32c.24-3.24,0-7.2,0-7.2h.12s1.44,4.5,2.4,7.2l4.5,12.42h9l4.5-12.42c.96-2.7,2.4-7.2,2.4-7.2h.12s-.24,3.96,0,7.2l1.32,19.32h10.5l-3.48-42.9h-11.4l-6.24,18.12c-.96,2.76-2.16,7.08-2.16,7.08h-.12s-1.2-4.32-2.16-7.08l-6.24-18.12h-11.4l-3.54,42.9ZM108.26,129.03h10.5v-42.9h-10.5v42.9ZM74.83,105.57v-10.44h3.54c5.28,0,6.48,1.92,6.48,5.16,0,3.42-2.1,5.28-5.46,5.28h-4.56ZM64.33,129.03h10.5v-14.46h4.92l7.62,14.46h11.7l-8.34-15c-1.02-1.8-1.62-2.58-1.62-2.58v-.12c4.26-2.16,6.42-7.14,6.42-11.7,0-6.24-3.06-10.62-7.92-12.48-1.86-.72-3.96-1.02-8.34-1.02h-14.94v42.9ZM11.16,107.49c0,14.04,10.08,22.26,21.06,22.26,7.14,0,11.28-3.72,11.28-3.72h.12s-.06.9-.06,1.8v1.2h8.76v-24.24h-15.36v8.94h6.06v3.3s-3.66,3.12-8.7,3.12c-6.66,0-12.3-4.86-12.3-13.02,0-6.36,3.66-12.12,12.66-12.12,6.06,0,10.44,3.96,10.44,3.96l5.04-7.86s-5.52-5.7-16.5-5.7c-13.08,0-22.5,9.6-22.5,22.08"/>
      <path class="cls-1" d="M335.52,65.03v-24.9h4.32c7.08,0,11.7,4.2,11.7,12.36s-4.44,12.54-11.7,12.54h-4.32ZM325.02,74.03h15.24c13.5,0,22.14-8.04,22.14-21.54s-8.64-21.36-22.14-21.36h-15.24v42.9ZM288.45,74.03h28.02v-9h-17.52V31.13h-10.5v42.9ZM249.46,74.03h27.72v-9h-17.22v-8.1h13.08v-9h-13.08v-7.8h16.38v-9h-26.88v42.9ZM215.33,74.03h10.92l15.12-42.9h-11.22l-7.68,24.42c-.84,2.7-1.62,6.9-1.62,6.9h-.12s-.78-4.2-1.62-6.9l-7.56-24.42h-11.4l15.18,42.9ZM153.79,52.49c0,14.04,10.08,22.26,21.06,22.26,7.14,0,11.28-3.72,11.28-3.72h.12s-.06.9-.06,1.8v1.2h8.76v-24.24h-15.36v8.94h6.06v3.3s-3.66,3.12-8.7,3.12c-6.66,0-12.3-4.86-12.3-13.02,0-6.36,3.66-12.12,12.66-12.12,6.06,0,10.44,3.96,10.44,3.96l5.04-7.86s-5.52-5.7-16.5-5.7c-13.08,0-22.5,9.6-22.5,22.08M118.21,74.03h27.72v-9h-17.22v-8.1h13.08v-9h-13.08v-7.8h16.38v-9h-26.88v42.9ZM94.52,74.03h10.5V31.13h-10.5v42.9ZM57.95,74.03h28.02v-9h-17.52V31.13h-10.5v42.9ZM23.82,74.03h10.92l15.12-42.9h-11.22l-7.68,24.42c-.84,2.7-1.62,6.9-1.62,6.9h-.12s-.78-4.2-1.62-6.9l-7.56-24.42h-11.4l15.18,42.9Z"/>
      <path class="cls-3" d="M224.85,19.11h6.17v-1.55h-4.37v-2.68h3.35v-1.55h-3.35v-2.61h4.14v-1.55h-5.95v9.94ZM219.12,19.11h1.8v-9.94h-1.8v9.94ZM211.34,19.11h1.8v-8.39h3.26v-1.55h-8.33v1.55h3.26v8.39ZM195.03,19.11h6.17v-1.55h-4.37v-2.68h3.35v-1.55h-3.35v-2.61h4.14v-1.55h-5.95v9.94ZM187.25,19.11h1.8v-8.39h3.26v-1.55h-8.33v1.55h3.26v8.39ZM179.46,19.11h1.8v-9.94h-1.8v9.94ZM167.38,19.11h1.8v-4.17h4.55v4.17h1.8v-9.94h-1.8v4.21h-4.55v-4.21h-1.8v9.94ZM158.73,9.17h-1.57l-1.79,6.87c-.15.57-.17,1.05-.18,1.05h-.03s-.04-.49-.17-1.05l-1.57-6.87h-1.86l2.49,9.94h2.09l1.53-5.88c.17-.64.25-1.3.25-1.3h.03s.08.66.25,1.3l1.53,5.88h2.09l2.56-9.94h-1.86l-1.64,6.87c-.13.56-.17,1.05-.17,1.05h-.03s-.03-.48-.18-1.05l-1.76-6.87ZM139.87,19.11h1.8v-8.39h3.26v-1.55h-8.33v1.55h3.26v8.39ZM126.25,14.07c0-1.96,1.46-3.42,3.28-3.42s3.28,1.46,3.28,3.42-1.46,3.56-3.28,3.56-3.28-1.51-3.28-3.56M124.39,14.07c0,2.93,2.21,5.21,5.14,5.21s5.14-2.28,5.14-5.21-2.21-5.07-5.14-5.07-5.14,2.22-5.14,5.07M117.37,19.11h1.8v-8.39h3.26v-1.55h-8.33v1.55h3.26v8.39ZM97.8,14.12c0,3.12,2.25,5.15,4.87,5.15,1.85,0,2.89-1.06,2.89-1.06h.03s-.01.21-.01.42v.48h1.54v-5.23h-3.15v1.55h1.53v1.16s-.99,1.04-2.49,1.04c-1.86,0-3.33-1.4-3.33-3.56,0-1.88,1.19-3.42,3.42-3.42,1.58,0,2.65.95,2.65.95l.9-1.35s-1.26-1.26-3.7-1.26c-2.96,0-5.12,2.24-5.12,5.12M89.08,19.11h6.17v-1.55h-4.37v-2.68h3.35v-1.55h-3.35v-2.61h4.14v-1.55h-5.95v9.94ZM80.13,19.11h6.1v-1.55h-4.3v-8.39h-1.8v9.94ZM68.09,19.11h1.81v-5.72c0-.59-.1-1.54-.1-1.54h.03s.45.97.83,1.54l3.77,5.72h1.79v-9.94h-1.79v5.74c0,.59.1,1.54.1,1.54h-.03s-.45-.97-.83-1.54l-3.77-5.74h-1.81v9.94ZM60.99,10.89s.21.98.39,1.54l.88,2.66h-2.6l.88-2.66c.2-.56.42-1.54.42-1.54h.03ZM63.56,19.11h1.86l-3.5-9.94h-1.89l-3.5,9.94h1.86l.84-2.55h3.49l.84,2.55ZM50.68,10.89s.21.98.39,1.54l.88,2.66h-2.6l.88-2.66c.2-.56.42-1.54.42-1.54h.03ZM53.24,19.11h1.86l-3.5-9.94h-1.89l-3.5,9.94h1.86l.84-2.55h3.49l.84,2.55ZM30.62,19.11h1.8v-5.72c0-.59-.1-1.54-.1-1.54h.03s.45.97.83,1.54l3.77,5.72h1.79v-9.94h-1.79v5.74c0,.59.1,1.54.1,1.54h-.03s-.45-.97-.83-1.54l-3.77-5.74h-1.8v9.94ZM23.52,10.89s.21.98.39,1.54l.88,2.66h-2.6l.88-2.66c.2-.56.42-1.54.42-1.54h.03ZM26.08,19.11h1.86l-3.5-9.94h-1.89l-3.5,9.94h1.86l.84-2.55h3.49l.84,2.55ZM12.63,19.11h1.79l3.62-9.94h-1.93l-2.2,6.48c-.2.57-.36,1.46-.38,1.46h-.03s-.18-.88-.38-1.46l-2.18-6.48h-1.94l3.62,9.94Z"/>
    </g>
    <text class="cls-4" transform="translate(231.02 19.11)"><tspan x="0" y="0"> </tspan></text>
  </g>
</svg>